<svg width="100%" height="100%" xmlns="http://www.w3.org/2000/svg">
<symbol id="trash"  viewBox="0 0 30 29">

 <g>
  <title>background</title>
  <rect fill="transparent" id="canvas_background" height="31" width="32" y="-1" x="-1"/>
  <g display="none" overflow="visible" y="0" x="0" height="100%" width="100%" id="canvasGrid">
   <rect fill="null" stroke-width="0" y="0" x="0" height="100%" width="100%"/>
  </g>
 </g>
 <g>
  <title>Layer 1</title>
  <g fill="currentColor" stroke="null" id="svg_25">
   <g stroke="null" transform="matrix(0.1792472844149239,0,0,0.1494060033663535,11.64302910971411,34.53582538655522) " id="svg_5">
    <path stroke="null" id="svg_6" d="m99.743495,-191.949215l-13.672,0l-29.971,0l0,-25.078l-73.766,0l0,25.078l-29.971,0l-13.673,0l0,15l14.806,0l10,132.463l111.443,0l10,-132.463l14.805,0l0,-15l-0.001,0zm-102.409,-10.078l43.766,0l0,10.078l-43.766,0l0,-10.078zm63.695,142.541l-83.623,0l-8.868,-117.463l13.796,0l73.766,0l13.796,0l-8.867,117.463z"/>
    <rect stroke="null" id="svg_7" height="66.232" width="12" y="-151.334215" x="13.217495"/>
    <rect stroke="null" id="svg_8" height="66.232" width="12" y="-151.334215" x="-9.782505"/>
    <rect stroke="null" id="svg_9" height="66.232" width="12" y="-151.334215" x="36.217495"/>
   </g>
   <g stroke="null" transform="matrix(0.2742898845698781,0,0,0.23782800425195974,17.81654813452498,29.220241368793005) " id="svg_10"/>
   <g stroke="null" transform="matrix(0.2742898845698781,0,0,0.23782800425195974,17.81654813452498,29.220241368793005) " id="svg_11"/>
   <g stroke="null" transform="matrix(0.2742898845698781,0,0,0.23782800425195974,17.81654813452498,29.220241368793005) " id="svg_12"/>
   <g stroke="null" transform="matrix(0.2742898845698781,0,0,0.23782800425195974,17.81654813452498,29.220241368793005) " id="svg_13"/>
   <g stroke="null" transform="matrix(0.2742898845698781,0,0,0.23782800425195974,17.81654813452498,29.220241368793005) " id="svg_14"/>
   <g stroke="null" transform="matrix(0.2742898845698781,0,0,0.23782800425195974,17.81654813452498,29.220241368793005) " id="svg_15"/>
   <g stroke="null" transform="matrix(0.2742898845698781,0,0,0.23782800425195974,17.81654813452498,29.220241368793005) " id="svg_16"/>
   <g stroke="null" transform="matrix(0.2742898845698781,0,0,0.23782800425195974,17.81654813452498,29.220241368793005) " id="svg_17"/>
   <g stroke="null" transform="matrix(0.2742898845698781,0,0,0.23782800425195974,17.81654813452498,29.220241368793005) " id="svg_18"/>
   <g stroke="null" transform="matrix(0.2742898845698781,0,0,0.23782800425195974,17.81654813452498,29.220241368793005) " id="svg_19"/>
   <g stroke="null" transform="matrix(0.2742898845698781,0,0,0.23782800425195974,17.81654813452498,29.220241368793005) " id="svg_20"/>
   <g stroke="null" transform="matrix(0.2742898845698781,0,0,0.23782800425195974,17.81654813452498,29.220241368793005) " id="svg_21"/>
   <g stroke="null" transform="matrix(0.2742898845698781,0,0,0.23782800425195974,17.81654813452498,29.220241368793005) " id="svg_22"/>
   <g stroke="null" transform="matrix(0.2742898845698781,0,0,0.23782800425195974,17.81654813452498,29.220241368793005) " id="svg_23"/>
   <g stroke="null" transform="matrix(0.2742898845698781,0,0,0.23782800425195974,17.81654813452498,29.220241368793005) " id="svg_24"/>
  </g>
 </g>
 </symbol>
</svg>